999
FreeCAD v1.1 44227 +568 (Git)
  0
SECTION
  2
HEADER
  9
$ACADVER
  1
AC1014
  9
$ACADMAINTVER
 70
     9
  9
$DWGCODEPAGE
  3
ANSI_1252
  9
$TEXTSTYLE
  7
STANDARD
  9
$DIMSTYLE
  2
STANDARD
  9
$DIMTXSTY
  7
STANDARD
  9
$CMLSTYLE
  2
STANDARD
  9
$LUNITS
 70
2
  9
$INSUNITS
 70
4
  9
$PEXTMAX
 10
50
 20
50
 30
50
  9
$PEXTMIN
 10
0
 20
0
 30
0
  9
$HANDSEED
  5
FFFF
  0
ENDSEC
  0
SECTION
  2
CLASSES
  0
CLASS
  1
ACDBDICTIONARYWDFLT
  2
AcDbDictionaryWithDefault
  3
ObjectDBX Classes
 90
        0
280
     0
281
     0
  0
CLASS
  1
XRECORD
  2
AcDbXrecord
  3
ObjectDBX Classes
 90
        0
280
     0
281
     0
  0
CLASS
  1
LWPOLYLINE
  2
AcDbPolyline
  3
ObjectDBX Classes
 90
        0
280
     0
281
     1
  0
ENDSEC
  0
SECTION
  2
TABLES
  0
TABLE
  2
VPORT
  5
20
330
0
100
AcDbSymbolTable
 70
     1
  0
VPORT
  5
21
330
20
100
AcDbSymbolTableRecord
100
AcDbViewportTableRecord
  2
*ACTIVE
 70
     0
  0
ENDTAB
  0
TABLE
  2
LTYPE
  5
22
330
0
100
AcDbSymbolTable
 70
     1
  0
LTYPE
  5
23
330
21
100
AcDbSymbolTableRecord
100
AcDbLinetypeTableRecord
  2
BYBLOCK
 70
     0
  3

 72
    65
 73
     0
 40
0.0
  0
LTYPE
  5
24
330
21
100
AcDbSymbolTableRecord
100
AcDbLinetypeTableRecord
  2
BYLAYER
 70
     0
  3

 72
    65
 73
     0
 40
0.0
  0
LTYPE
  5
25
330
21
100
AcDbSymbolTableRecord
100
AcDbLinetypeTableRecord
  2
CONTINUOUS
 70
     0
  3
Solid line
 72
    65
 73
     0
 40
0.0
  0
ENDTAB
  0
TABLE
  2
LAYER
  5
A2C
330
0
100
AcDbSymbolTable
 70
3
  0
LAYER
  5
A2D
330
A2C
100
AcDbSymbolTableRecord
100
AcDbLayerTableRecord
  2
0
 70
   0
 62
   7
  6
CONTINUOUS
  0
LAYER
  5
A2E
330
A2C
100
AcDbSymbolTableRecord
100
AcDbLayerTableRecord
  2
none
 70
    0
 62
    7
  6
CONTINUOUS
  0
LAYER
  5
A2F
330
A2C
100
AcDbSymbolTableRecord
100
AcDbLayerTableRecord
  2
Sketch
 70
    0
 62
    7
  6
CONTINUOUS
  0
ENDTAB
  0
TABLE
  2
STYLE
  5
70
330
0
100
AcDbSymbolTable
 70
     2
  0
STYLE
  5
71
330
70
100
AcDbSymbolTableRecord
100
AcDbTextStyleTableRecord
  2
STANDARD
 70
     0
 40
0.0
 41
1.0
 50
0.0
 71
     0
 42
2.5
  3
arial.ttf
  4

  0
STYLE
  5
72
330
70
100
AcDbSymbolTableRecord
100
AcDbTextStyleTableRecord
  2
ANNOTATIVE
 70
     0
 40
0.0
 41
1.0
 50
0.0
 71
     0
 42
2.5
  3
arial.ttf
  4

  0
ENDTAB
  0
TABLE
  2
VIEW
  5
73
330
0
100
AcDbSymbolTable
 70
     0
  0
ENDTAB
  0
TABLE
  2
UCS
  5
74
330
0
100
AcDbSymbolTable
 70
     0
  0
ENDTAB
  0
TABLE
  2
APPID
  5
75
330
0
100
AcDbSymbolTable
 70
     2
  0
APPID
  5
76
330
75
100
AcDbSymbolTableRecord
100
AcDbRegAppTableRecord
  2
ACAD
 70
     0
  0
APPID
  5
77
330
75
100
AcDbSymbolTableRecord
100
AcDbRegAppTableRecord
  2
ACADANNOTATIVE
 70
     0
  0
ENDTAB
  0
TABLE
  2
DIMSTYLE
  5
78
330
0
100
AcDbSymbolTable
 70
     2
  0
DIMSTYLE
105
79
330
78
100
AcDbSymbolTableRecord
100
AcDbDimStyleTableRecord
  2
STANDARD
 70
     0
  3

  4

  5

  6

  7

 40
0.0
 41
2.5
 42
0.625
 43
3.75
 44
1.25
 45
0.0
 46
0.0
 47
0.0
 48
0.0
140
2.5
141
2.5
142
0.0
143
0.03937007874016
144
1.0
145
0.0
146
1.0
147
0.625
 71
     0
 72
     0
 73
     0
 74
     0
 75
     0
 76
     0
 77
     1
 78
     8
170
     0
171
     3
172
     1
173
     0
174
     0
175
     0
176
     0
177
     0
178
     0
270
     2
271
     2
272
     2
273
     2
274
     3
340
71
275
     0
280
     0
281
     0
282
     0
283
     0
284
     8
285
     0
286
     0
287
     3
288
     0
  0
ENDTAB
  0
TABLE
  2
BLOCK_RECORD
  5
A01
330
0
100
AcDbSymbolTable
  70
5
  0
BLOCK_RECORD
  5
A02
330
A01
100
AcDbSymbolTableRecord
100
AcDbBlockTableRecord
  2
*MODEL_SPACE
  0
BLOCK_RECORD
  5
A03
330
A01
100
AcDbSymbolTableRecord
100
AcDbBlockTableRecord
  2
*PAPER_SPACE
  0
ENDTAB
  0
ENDSEC
  0
SECTION
  2
BLOCKS
  0
BLOCK
  5
A04
330
A02
100
AcDbEntity
  8
0
100
AcDbBlockBegin
  2
*MODEL_SPACE
 70
   0
 10
0
 20
0
 30
0
  3
*MODEL_SPACE
  1
 
  0
ENDBLK
  5
A05
330
A02
100
AcDbEntity
  8
0
100
AcDbBlockEnd
  0
BLOCK
  5
A06
330
A03
100
AcDbEntity
 67
1
  8
0
100
AcDbBlockBegin
  2
*PAPER_SPACE
 70
   0
 10
0
 20
0
 30
0
  3
*PAPER_SPACE
  1
 
  0
ENDBLK
  5
A07
330
A03
100
AcDbEntity
 67
    1
  8
0
100
AcDbBlockEnd
  0
ENDSEC
  0
SECTION
  2
ENTITIES
  0
LINE
  5
A08
330
A02
100
AcDbEntity
  8
Sketch
100
AcDbLine
 10
-63.362556458
 20
-9.575754166
 30
0.000000000
 11
-63.362556458
 21
14.342208862
 31
0.000000000
  0
ARC
  5
A09
330
A02
100
AcDbEntity
  8
Sketch
100
AcDbCircle
 10
-61.362556458
 20
14.342208862
 30
0.000000000
 40
2.000000000
100
AcDbArc
 50
90.000000000
 51
180.000000000
  0
LINE
  5
A0A
330
A02
100
AcDbEntity
  8
Sketch
100
AcDbLine
 10
-61.362556458
 20
16.342208862
 30
0.000000000
 11
-60.073663780
 21
16.342208862
 31
0.000000000
  0
ARC
  5
A0B
330
A02
100
AcDbEntity
  8
Sketch
100
AcDbCircle
 10
-60.073663780
 20
17.842208862
 30
0.000000000
 40
1.500000000
100
AcDbArc
 50
-90.000000000
 51
-39.866535552
  0
LINE
  5
A0C
330
A02
100
AcDbEntity
  8
Sketch
100
AcDbLine
 10
-58.922354276
 20
16.880706690
 30
0.000000000
 11
-58.401208507
 21
17.504730321
 31
0.000000000
  0
ARC
  5
A0D
330
A02
100
AcDbEntity
  8
Sketch
100
AcDbCircle
 10
-57.249899003
 20
16.543228149
 30
0.000000000
 40
1.500000000
100
AcDbArc
 50
90.000000000
 51
140.133464448
  0
LINE
  5
A0E
330
A02
100
AcDbEntity
  8
Sketch
100
AcDbLine
 10
-57.249899003
 20
18.043228149
 30
0.000000000
 11
-56.498039246
 21
18.043228149
 31
0.000000000
  0
ARC
  5
A0F
330
A02
100
AcDbEntity
  8
Sketch
100
AcDbCircle
 10
-56.498039246
 20
16.543228149
 30
0.000000000
 40
1.500000000
100
AcDbArc
 50
0.000000000
 51
90.000000000
  0
LINE
  5
A10
330
A02
100
AcDbEntity
  8
Sketch
100
AcDbLine
 10
-54.998039246
 20
16.543228149
 30
0.000000000
 11
-54.998039246
 21
16.292782784
 31
0.000000000
  0
ARC
  5
A11
330
A02
100
AcDbEntity
  8
Sketch
100
AcDbCircle
 10
-53.498039246
 20
16.292782784
 30
0.000000000
 40
1.500000000
100
AcDbArc
 50
180.000000000
 51
-90.000000000
  0
LINE
  5
A12
330
A02
100
AcDbEntity
  8
Sketch
100
AcDbLine
 10
-53.498039246
 20
14.792782784
 30
0.000000000
 11
-45.997550964
 21
14.792782784
 31
0.000000000
  0
ARC
  5
A13
330
A02
100
AcDbEntity
  8
Sketch
100
AcDbCircle
 10
-45.997550964
 20
16.292782784
 30
0.000000000
 40
1.500000000
100
AcDbArc
 50
-90.000000000
 51
0.000000000
  0
LINE
  5
A14
330
A02
100
AcDbEntity
  8
Sketch
100
AcDbLine
 10
-44.497550964
 20
16.292782784
 30
0.000000000
 11
-44.497550964
 21
16.543228149
 31
0.000000000
  0
ARC
  5
A15
330
A02
100
AcDbEntity
  8
Sketch
100
AcDbCircle
 10
-42.997550964
 20
16.543228149
 30
0.000000000
 40
1.500000000
100
AcDbArc
 50
90.000000000
 51
180.000000000
  0
LINE
  5
A16
330
A02
100
AcDbEntity
  8
Sketch
100
AcDbLine
 10
-42.997550964
 20
18.043228149
 30
0.000000000
 11
2.144384490
 21
18.043228149
 31
0.000000000
  0
ARC
  5
A17
330
A02
100
AcDbEntity
  8
Sketch
100
AcDbCircle
 10
2.144384490
 20
16.043228149
 30
0.000000000
 40
2.000000000
100
AcDbArc
 50
49.100576737
 51
90.000000000
  0
LINE
  5
A18
330
A02
100
AcDbEntity
  8
Sketch
100
AcDbLine
 10
3.453850900
 20
17.554948269
 30
0.000000000
 11
5.547252892
 21
15.741623463
 31
0.000000000
  0
ARC
  5
A19
330
A02
100
AcDbEntity
  8
Sketch
100
AcDbCircle
 10
6.856719303
 20
17.253343582
 30
0.000000000
 40
2.000000000
100
AcDbArc
 50
-130.899423263
 51
-90.000000000
  0
LINE
  5
A1A
330
A02
100
AcDbEntity
  8
Sketch
100
AcDbLine
 10
6.856719303
 20
15.253343582
 30
0.000000000
 11
9.322833061
 21
15.253343582
 31
0.000000000
  0
ARC
  5
A1B
330
A02
100
AcDbEntity
  8
Sketch
100
AcDbCircle
 10
9.322833061
 20
13.253343582
 30
0.000000000
 40
2.000000000
100
AcDbArc
 50
0.000000000
 51
90.000000000
  0
LINE
  5
A1C
330
A02
100
AcDbEntity
  8
Sketch
100
AcDbLine
 10
11.322833061
 20
13.253343582
 30
0.000000000
 11
11.322833061
 21
-8.486888885
 31
0.000000000
  0
ARC
  5
A1D
330
A02
100
AcDbEntity
  8
Sketch
100
AcDbCircle
 10
9.322833061
 20
-8.486888885
 30
0.000000000
 40
2.000000000
100
AcDbArc
 50
-90.000000000
 51
0.000000000
  0
LINE
  5
A1E
330
A02
100
AcDbEntity
  8
Sketch
100
AcDbLine
 10
9.322833061
 20
-10.486888885
 30
0.000000000
 11
6.871115721
 21
-10.486888885
 31
0.000000000
  0
ARC
  5
A1F
330
A02
100
AcDbEntity
  8
Sketch
100
AcDbCircle
 10
6.871115721
 20
-12.486888885
 30
0.000000000
 40
2.000000000
100
AcDbArc
 50
90.000000000
 51
128.781276214
  0
LINE
  5
A20
330
A02
100
AcDbEntity
  8
Sketch
100
AcDbLine
 10
5.618417527
 20
-10.927803501
 30
0.000000000
 11
3.243687751
 21
-12.835857884
 31
0.000000000
  0
ARC
  5
A21
330
A02
100
AcDbEntity
  8
Sketch
100
AcDbCircle
 10
1.990989558
 20
-11.276772499
 30
0.000000000
 40
2.000000000
100
AcDbArc
 50
-90.000000000
 51
-51.218723786
  0
LINE
  5
A22
330
A02
100
AcDbEntity
  8
Sketch
100
AcDbLine
 10
1.990989558
 20
-13.276772499
 30
0.000000000
 11
-56.850839751
 21
-13.276772499
 31
0.000000000
  0
ARC
  5
A23
330
A02
100
AcDbEntity
  8
Sketch
100
AcDbCircle
 10
-56.850839751
 20
-11.776772499
 30
0.000000000
 40
1.500000000
100
AcDbArc
 50
-140.133464448
 51
-90.000000000
  0
LINE
  5
A24
330
A02
100
AcDbEntity
  8
Sketch
100
AcDbLine
 10
-58.002149255
 20
-12.738274671
 30
0.000000000
 11
-58.523294227
 21
-12.114251994
 31
0.000000000
  0
ARC
  5
A25
330
A02
100
AcDbEntity
  8
Sketch
100
AcDbCircle
 10
-59.674603731
 20
-13.075754166
 30
0.000000000
 40
1.500000000
100
AcDbArc
 50
39.866535552
 51
90.000000000
  0
LINE
  5
A26
330
A02
100
AcDbEntity
  8
Sketch
100
AcDbLine
 10
-59.674603731
 20
-11.575754166
 30
0.000000000
 11
-61.362556458
 21
-11.575754166
 31
0.000000000
  0
ARC
  5
A27
330
A02
100
AcDbEntity
  8
Sketch
100
AcDbCircle
 10
-61.362556458
 20
-9.575754166
 30
0.000000000
 40
2.000000000
100
AcDbArc
 50
180.000000000
 51
-90.000000000
  0
CIRCLE
  5
A28
330
A02
100
AcDbEntity
  8
Sketch
100
AcDbCircle
 10
-2.005437613
 20
14.702252388
 30
0.000000000
 40
1.100000000
  0
CIRCLE
  5
A29
330
A02
100
AcDbEntity
  8
Sketch
100
AcDbCircle
 10
-2.068937719
 20
-10.062797070
 30
0.000000000
 40
1.100000000
  0
CIRCLE
  5
A2A
330
A02
100
AcDbEntity
  8
Sketch
100
AcDbCircle
 10
-30.613525391
 20
13.212292194
 30
0.000000000
 40
1.100000000
  0
CIRCLE
  5
A2B
330
A02
100
AcDbEntity
  8
Sketch
100
AcDbCircle
 10
-30.613525391
 20
-7.187707901
 30
0.000000000
 40
1.100000000
  0
ENDSEC
  0
SECTION
  2
OBJECTS
  0
DICTIONARY
  5
F000
330
0
100
AcDbDictionary
  3
ACAD_GROUP
350
F001
  0
DICTIONARY
  5
F001
330
F000
100
AcDbDictionary
  0
ENDSEC
  0
EOF